<?xml version="1.0" encoding="UTF-8"?>
<svg xmlns="http://www.w3.org/2000/svg" viewBox="0 0 974.06 748.59">
  <defs>
    <style>
      .cls-1 {
        fill: none;
        stroke: #57b2e3;
        stroke-linecap: round;
        stroke-miterlimit: 10;
        stroke-width: 33px;
      }
    </style>
  </defs>
  <g id="Stroke_1" data-name="Stroke 1">
    <path class="cls-1" d="M726.04,714.38c-17.43-19.36-18-19.62-27.22-32.86-19.17-27.54-26.61-40.3-31.12-49.88-.86-1.83-2.11-4.59-3.45-7.95-5.36-13.47-11.15-31.01-9.24-59.15"/>
  </g>
  <g id="Stroke_2" data-name="Stroke 2">
    <path class="cls-1" d="M673.74,732.09c-10.55-12.4-23.8-23.48-44.82-42.14-14.61-12.97-27.34-23.09-49.19-39.41-16.12-12.04-52.85-41.19-79.62-59.52"/>
  </g>
  <g id="Stroke_3" data-name="Stroke 3">
    <path class="cls-1" d="M837.92,491.4c-8.94-9.69-34.91-29.23-73.53-38.53-7.37-1.77-48.73-8.93-91.35,11.08-14.48,6.8-26.03,16.43-61.62,55.07-38.36,41.64-44.4,41.87-53.92,48.13-33.36,21.93-77.29,27-121.32,13.15-30.57-9.62-48.1-20.75-64.46-36.12-18.18-17.08-40.22-37.68-50.01-69.46-2.35-7.62-13.42-43.19,2.04-82.79,10.26-26.28,28.34-45.06,49.27-64.64,12.86-12.03,22.74-22.31,38.16-22.6,43.71-.83,82.06-.99,102.24-.56"/>
  </g>
  <g id="Stroke_4" data-name="Stroke 4">
    <path class="cls-1" d="M727.56,557.64c33.33,16.39,64.59,24.88,84.7,27.34,37.3,4.57,53.88,4.14,78.09-4.05,34.98-11.83,47.83-42.57,51.81-50.74,8.88-18.21,9.68-30.21,12.61-48.4,1.29-8.01,6.32-35.88-1.53-78.05-4.42-23.78-11.08-42.31-25.74-64.93-6.26-9.67-17.25-30.49-45.47-45.01-7.43-3.82-30.82-12.53-67.86-9.44-21.56,1.8-30.81,3.9-61.59,13.3-13.86,4.23-30.33,11.48-59.85,11.97-15.52.26-42.94,4.92-83.6-22.38"/>
  </g>
  <g id="Stroke_5" data-name="Stroke 5">
    <path class="cls-1" d="M826.49,239.64c11.5-1.12,39.87-2.44,70.88,11.45,10.85,4.86,27.61,11.79,41.19,44.58,10.37,25.03,9.03,69.19,6.8,78.21"/>
  </g>
  <g id="Stroke_6" data-name="Stroke 6">
    <path class="cls-1" d="M720.74,214.84c-7.09,6.83-18.35,21.54-25.85,37.13-11.71,24.37-4.13,43.08-3.44,54.46"/>
  </g>
  <g id="Stroke_7" data-name="Stroke 7">
    <path class="cls-1" d="M422.66,484.66c3-11.92,15.87-42.02,40.28-63.62,9.36-8.28,24.56-19.31,52.03-19.38,13-.03,16.86-.01,46.72,11.12,23.96,8.93,21.09,16.51,49.08,17.22,18.25.47,29.39-5.71,39.47-14.71"/>
  </g>
  <g id="Stroke_8" data-name="Stroke 8">
    <path class="cls-1" d="M556.17,325.63c-7.7,7.17-15.18,14.48-23.98,29.75-9.91,17.19-10.05,29.94-12.2,40.9"/>
  </g>
  <g id="Stroke_9" data-name="Stroke 9">
    <path class="cls-1" d="M571.1,104.09c29.75-10.03,68.28-19.12,113.22-16.15,19.46,1.29,46.14,1.82,79.32,16.22,19.73,8.56,51.58,25.93,79.38,59.42,23.29,28.06,32.44,57.44,37.92,75.4"/>
  </g>
  <g id="Stroke_10" data-name="Stroke 10">
    <path class="cls-1" d="M420.26,63.93c9.68-11.55,30.55-26.89,60.71-38.68,10.3-4.03,31.12-10.45,57.86-8.34,30.93,2.44,47.16,16.84,55.76,22.67,20.56,13.94,32.74,30.54,39.17,40.93"/>
  </g>
  <g id="Stroke_11" data-name="Stroke 11">
    <path class="cls-1" d="M204.3,169.44c4.11-18.57,12.1-36.61,28.23-61.05,11.61-17.58,26.14-39.59,54.7-53.64,30.96-15.23,60.11-12.11,69.87-10.94,57.16,6.88,81.47,44.42,88.22,53.64"/>
  </g>
  <g id="Stroke_12" data-name="Stroke 12">
    <path class="cls-1" d="M211.36,133.75c-17.24,1.69-49.11,3.43-77.22,15.94-16.55,7.37-50.34,23.76-78.97,60.53-33.92,43.57-35.24,90.48-37.17,114.39-2.21,27.4-5.87,72.87,21.59,119.14,30.01,50.56,72.86,71.16,90.8,76.61,53.31,16.19,99.29,9.97,130.35,4.56,26.29-4.58,49.99-10.23,64.95-16.26"/>
  </g>
  <g id="Stroke_13" data-name="Stroke 13">
    <path class="cls-1" d="M83.04,283.4c-1.13,4.7-5.55,32.64,10.79,53.6,15.81,20.29,36.44,20.43,44.87,20.23,15.82-.37,14.73-.23,22.99-1.29"/>
  </g>
  <g id="Stroke_14" data-name="Stroke 14">
    <path class="cls-1" d="M174.83,437.61c-2.12-14.6-5.11-30.96-5.95-54.83-1.23-34.62,4.97-55.11,12.6-73.85,8.83-21.67,21.7-34.16,33.6-45.15,21.11-19.51,35.57-24.29,49.35-29.75"/>
  </g>
  <g id="Stroke_15" data-name="Stroke 15">
    <path class="cls-1" d="M278.42,185.03c-3.52,5.77-8.97,16.47-10.15,30.8-.6,7.24-3.85,23.1,12.25,39.9s31.4,16.34,35.15,16.45"/>
  </g>
  <g id="Stroke_16" data-name="Stroke 16">
    <path class="cls-1" d="M401.9,228.6v71.16"/>
  </g>
  <g id="Stroke_17" data-name="Stroke 17">
    <path class="cls-1" d="M342.29,195.81c5.31-8.05,14.37-24.08,39.25-35.33,3.17-1.43,35.43-12.83,69.88-3.82,40.16,10.51,64.73,40.97,80.3,85.38"/>
  </g>
  <g id="Stroke_18" data-name="Stroke 18">
    <path class="cls-1" d="M349.22,96.23c-1.34,8.72-4.08,21.95,4.44,41.49,4.69,10.76,10.44,15.18,15.1,20.14"/>
  </g>
  <g id="Stroke_19" data-name="Stroke 19">
    <path class="cls-1" d="M610.46,162.8c-17.34-1.57-29.47-1.65-38.83-.49-11.12,1.38-23.86,2.23-42.98,14.03-8.18,5.05-14.01,14.05-18.07,18.07"/>
  </g>
</svg>