<?xml version="1.0" encoding="UTF-8"?>
<svg version="1.1" xmlns="http://www.w3.org/2000/svg" width="336" height="338">
<path d="M0 0 C0.79792969 -0.00773437 1.59585938 -0.01546875 2.41796875 -0.0234375 C6.45630876 -0.00995389 9.3621369 0.07460313 12.875 2.25 C14.24598475 2.63942368 15.62131215 3.01379396 17 3.375 C23.72491147 5.52741777 28.94842496 10.32342496 33.875 15.25 C33.875 16.24 33.875 17.23 33.875 18.25 C34.49375 18.3325 35.1125 18.415 35.75 18.5 C37.875 19.25 37.875 19.25 39.0078125 21.296875 C39.29398438 21.94140625 39.58015625 22.5859375 39.875 23.25 C41.18855469 23.23839844 42.50210938 23.22679688 43.85546875 23.21484375 C45.59114441 23.20546172 47.32682161 23.19636196 49.0625 23.1875 C49.92681641 23.17912109 50.79113281 23.17074219 51.68164062 23.16210938 C55.88713948 23.14599635 59.77878802 23.18880519 63.875 24.25 C64.844375 24.47558594 65.81375 24.70117188 66.8125 24.93359375 C67.823125 25.18238281 68.83375 25.43117188 69.875 25.6875 C70.885625 25.93371094 71.89625 26.17992188 72.9375 26.43359375 C77.63155977 27.73819281 81.84972792 29.67719548 86.1875 31.875 C87.07050781 32.32101563 87.95351563 32.76703125 88.86328125 33.2265625 C89.85908203 33.73316406 89.85908203 33.73316406 90.875 34.25 C90.875 34.91 90.875 35.57 90.875 36.25 C91.679375 36.3428125 91.679375 36.3428125 92.5 36.4375 C96.04526157 37.65035264 98.1342392 39.69610926 100.875 42.25 C100.875 42.91 100.875 43.57 100.875 44.25 C101.535 44.25 102.195 44.25 102.875 44.25 C102.875 44.91 102.875 45.57 102.875 46.25 C104.195 46.91 105.515 47.57 106.875 48.25 C106.875 49.24 106.875 50.23 106.875 51.25 C107.45121094 51.4459375 108.02742188 51.641875 108.62109375 51.84375 C111.7794704 53.81431429 113.18872892 56.57011144 114.9375 59.75 C115.29110596 60.37422852 115.64471191 60.99845703 116.0090332 61.64160156 C118.04725081 65.35541202 119.51238559 68.87196406 120.5625 73 C121.12095408 75.33334941 121.12095408 75.33334941 121.875 77.25 C124.11190643 78.69525427 124.11190643 78.69525427 126.875 79.25 C128.75390625 80.3515625 128.75390625 80.3515625 130.6875 81.6875 C131.29207031 82.09871094 131.89664062 82.50992188 132.51953125 82.93359375 C132.96683594 83.36800781 133.41414063 83.80242187 133.875 84.25 C133.875 85.24 133.875 86.23 133.875 87.25 C134.865 87.58 135.855 87.91 136.875 88.25 C142.57848719 96.80523079 144.32272491 104.80971083 143.9375 115 C143.54616412 122.85540072 143.54616412 122.85540072 145.875 130.25 C146.45966211 133.64104022 146.875 136.80969603 146.875 140.25 C146.89786272 141.88151857 146.92137995 143.51302802 146.9453125 145.14453125 C146.96393498 147.11718383 146.98214788 149.0898403 147 151.0625 C147.01675781 152.04798828 147.03351563 153.03347656 147.05078125 154.04882812 C147.08555967 159.22733439 146.88380306 163.3953926 144.875 168.25 C144.41183313 169.87362893 143.95326488 171.49857896 143.5 173.125 C142.11004869 177.82945059 140.193432 181.93291972 137.875 186.25 C137.215 186.25 136.555 186.25 135.875 186.25 C135.62878906 186.83652344 135.38257813 187.42304688 135.12890625 188.02734375 C131.60377633 194.27593854 124.63799932 197.80982449 117.953125 199.69140625 C117.26734375 199.87574219 116.5815625 200.06007812 115.875 200.25 C114.740625 200.6625 113.60625 201.075 112.4375 201.5 C109.875 202.25 109.875 202.25 107.875 201.25 C106.25140567 201.17928596 104.62498868 201.16580134 103 201.1875 C102.13632812 201.19652344 101.27265625 201.20554688 100.3828125 201.21484375 C99.55523437 201.22644531 98.72765625 201.23804688 97.875 201.25 C89.22075019 201.25 80.93350639 199.30374979 72.875 196.25 C72.01648438 195.9509375 71.15796875 195.651875 70.2734375 195.34375 C65.04220774 193.43026183 61.25872838 191.76163783 57.875 187.25 C57.875 183.25 57.875 183.25 58.875 180.25 C59.535 180.25 60.195 180.25 60.875 180.25 C60.875 179.59 60.875 178.93 60.875 178.25 C65.18819671 177.26972802 67.03405598 177.23031541 70.875 179.25 C72.57202797 179.76778329 74.28200339 180.24422682 76 180.6875 C80.55343414 181.88960661 85.06418727 183.18701371 89.5703125 184.5546875 C92.66247234 185.4875764 95.76695996 186.37164086 98.875 187.25 C99.205 186.92 99.535 186.59 99.875 186.25 C102.20794775 186.20758277 104.54202567 186.20907063 106.875 186.25 C109.48661107 186.25 111.27232579 185.36714053 113.6875 184.375 C114.53957031 184.02695313 115.39164062 183.67890625 116.26953125 183.3203125 C117.55923828 182.79050781 117.55923828 182.79050781 118.875 182.25 C120.23818359 181.76080078 120.23818359 181.76080078 121.62890625 181.26171875 C124.08617913 180.44317555 124.08617913 180.44317555 125 177.9375 C125.28875 177.050625 125.5775 176.16375 125.875 175.25 C126.6484375 174.074375 126.6484375 174.074375 127.4375 172.875 C129.19988078 169.65673945 129.47929935 166.87725594 129.875 163.25 C130.19880126 161.91431979 130.53157551 160.58076989 130.875 159.25 C132.91421015 148.55959527 132.3887302 138.53630862 128.875 128.25 C128.545 127.26 128.215 126.27 127.875 125.25 C126.89234056 122.97839767 125.87016845 120.72658099 124.84765625 118.47265625 C123.875 116.25 123.875 116.25 122.875 113.3125 C121.59949628 110.68177357 120.52352444 110.3850819 117.875 109.25 C117.111875 108.610625 116.34875 107.97125 115.5625 107.3125 C111.69826673 104.34692563 107.85668617 102.25 102.875 102.25 C102.11445313 102.23839844 101.35390625 102.22679687 100.5703125 102.21484375 C99.72210938 102.20582031 98.87390625 102.19679688 98 102.1875 C96.73542969 102.17009766 96.73542969 102.17009766 95.4453125 102.15234375 C90.65349408 102.33440372 86.35858166 103.67160586 81.8125 105.125 C67.83181363 109.4791209 53.53667563 113.36950545 38.875 110.25 C38.545 109.59 38.215 108.93 37.875 108.25 C36.885 108.58 35.895 108.91 34.875 109.25 C32.53515625 108.359375 32.53515625 108.359375 29.9375 107 C28.65552734 106.34257812 28.65552734 106.34257812 27.34765625 105.671875 C25.01844437 104.33248618 22.90944019 103.00594374 20.875 101.25 C20.875 100.59 20.875 99.93 20.875 99.25 C20.215 99.25 19.555 99.25 18.875 99.25 C18.875 96.94 18.875 94.63 18.875 92.25 C19.514375 91.96125 20.15375 91.6725 20.8125 91.375 C23.02706079 90.42176549 23.02706079 90.42176549 23.875 88.25 C25.525 88.25 27.175 88.25 28.875 88.25 C28.875 88.91 28.875 89.57 28.875 90.25 C29.74318359 90.45109375 29.74318359 90.45109375 30.62890625 90.65625 C32.77120363 91.22256166 34.7540691 91.93477984 36.8125 92.75 C39.81354358 93.89993259 42.68717503 94.75190235 45.875 95.25 C45.875 93.93 45.875 92.61 45.875 91.25 C45.215 91.25 44.555 91.25 43.875 91.25 C46.04873959 81.70624808 50.73038927 71.15484278 58.875 65.25 C62.4375 64.5625 62.4375 64.5625 65.875 65.25 C68.375 67.9375 68.375 67.9375 69.875 71.25 C69.625 74.125 69.625 74.125 68.875 76.25 C68.215 76.25 67.555 76.25 66.875 76.25 C66.7925 76.78625 66.71 77.3225 66.625 77.875 C65.875 80.25 65.875 80.25 64 83 C61.5886165 86.6879983 60.30726121 90.0964425 58.875 94.25 C65.35035413 93.73608301 70.7822291 92.42679108 76.875 90.25 C81.84240152 88.76849428 86.84232166 87.48609643 91.875 86.25 C91.875 85.26 91.875 84.27 91.875 83.25 C91.215 83.25 90.555 83.25 89.875 83.25 C89.875 81.27 89.875 79.29 89.875 77.25 C90.514375 77.146875 91.15375 77.04375 91.8125 76.9375 C92.8334375 76.5971875 92.8334375 76.5971875 93.875 76.25 C94.205 75.26 94.535 74.27 94.875 73.25 C98.175 73.58 101.475 73.91 104.875 74.25 C97.5517043 60.33229601 97.5517043 60.33229601 85.875 50.25 C85.875 49.59 85.875 48.93 85.875 48.25 C84.988125 47.981875 84.10125 47.71375 83.1875 47.4375 C79.875 46.25 79.875 46.25 77.5 44.75 C74.03690799 42.77109028 70.76569762 42.10727236 66.875 41.25 C66.875 40.59 66.875 39.93 66.875 39.25 C66.318125 39.45625 65.76125 39.6625 65.1875 39.875 C62.20261639 40.35903518 60.60955148 39.44198398 57.875 38.25 C56.885 38.25 55.895 38.25 54.875 38.25 C53.658125 38.23839844 52.44125 38.22679687 51.1875 38.21484375 C49.75000108 38.20556101 48.31250102 38.19645241 46.875 38.1875 C45.78832031 38.17493164 45.78832031 38.17493164 44.6796875 38.16210938 C41.47256999 38.1473164 38.94036767 38.22821078 35.875 39.25 C34.885 39.25 33.895 39.25 32.875 39.25 C31.18304964 39.51463117 29.49582549 39.81013336 27.8125 40.125 C26.84183594 40.30417969 25.87117187 40.48335937 24.87109375 40.66796875 C22.92183677 41.04663797 20.97610904 41.44412088 19.03515625 41.86328125 C18.15730469 42.05277344 17.27945313 42.24226563 16.375 42.4375 C15.5809375 42.61667969 14.786875 42.79585937 13.96875 42.98046875 C11.875 43.25 11.875 43.25 8.875 42.25 C8.875 41.26 8.875 40.27 8.875 39.25 C7.885 38.92 6.895 38.59 5.875 38.25 C5.875 36.6 5.875 34.95 5.875 33.25 C6.535 32.92 7.195 32.59 7.875 32.25 C8.205 31.26 8.535 30.27 8.875 29.25 C11.0546875 28.30078125 11.0546875 28.30078125 13.75 27.5625 C14.63429687 27.31113281 15.51859375 27.05976562 16.4296875 26.80078125 C18.875 26.25 18.875 26.25 21.875 26.25 C21.05 25.46625 20.225 24.6825 19.375 23.875 C16.875 21.25 16.875 21.25 16.875 19.25 C5.61604137 15.34983786 -3.82035017 13.30300794 -15.125 18.25 C-18.18808182 19.8165076 -21.17270738 21.48420796 -24.125 23.25 C-24.125 23.91 -24.125 24.57 -24.125 25.25 C-24.125 26.24 -24.125 27.23 -24.125 28.25 C-23.465 28.25 -22.805 28.25 -22.125 28.25 C-20.72042263 31.05915474 -20.87604843 33.13810534 -21.125 36.25 C-22.60652445 39.13507392 -23.50289552 40.02668044 -26.5625 41.125 C-29.41434794 41.26411453 -30.73783126 40.75303217 -33.125 39.25 C-33.125 38.59 -33.125 37.93 -33.125 37.25 C-33.785 37.25 -34.445 37.25 -35.125 37.25 C-39.125 32.77941176 -39.125 32.77941176 -39.125 30.25 C-39.970625 29.981875 -40.81625 29.71375 -41.6875 29.4375 C-45.125 28.25 -45.125 28.25 -48.5625 26.6875 C-52.17565051 25.22956208 -55.26868929 24.67847897 -59.125 24.25 C-61.92189445 23.74147374 -64.42277132 23.15074289 -67.125 22.25 C-67.455 22.91 -67.785 23.57 -68.125 24.25 C-69.8671875 25.1015625 -69.8671875 25.1015625 -72 25.875 C-73.04800781 26.26558594 -73.04800781 26.26558594 -74.1171875 26.6640625 C-76.125 27.25 -76.125 27.25 -79.125 27.25 C-79.125 27.91 -79.125 28.57 -79.125 29.25 C-80.83984375 30.90625 -80.83984375 30.90625 -83.0625 32.75 C-86.04545179 35.13926999 -86.04545179 35.13926999 -88.125 38.25 C-88.785 38.25 -89.445 38.25 -90.125 38.25 C-90.49625 39.5184375 -90.49625 39.5184375 -90.875 40.8125 C-91.99456162 43.89129444 -93.37217767 46.45980728 -95.05859375 49.25390625 C-96.30281317 51.58282977 -97.16253876 53.95623033 -98.0625 56.4375 C-99.67177239 60.5612605 -101.03236988 63.15377482 -105.125 65.25 C-108.03706696 65.18066507 -109.51644957 64.68467888 -111.875 63 C-113.44260089 60.80535876 -113.76712875 58.89824722 -114.125 56.25 C-120.62177711 54.14254434 -126.80048608 57.94502408 -132.5625 60.875 C-144.87946123 67.90341984 -153.17477661 77.62397837 -157.0625 91.375 C-157.63748826 93.7507 -158.125 95.8101043 -158.125 98.25 C-158.785 98.25 -159.445 98.25 -160.125 98.25 C-159.939375 98.848125 -159.75375 99.44625 -159.5625 100.0625 C-159.125 102.25 -159.125 102.25 -160.125 105.25 C-160.22254649 107.80342278 -160.26727144 110.32234033 -160.25 112.875 C-160.24589111 113.59558594 -160.24178223 114.31617188 -160.23754883 115.05859375 C-160.10221473 127.98081714 -157.72266417 141.73603639 -148.125 151.25 C-148.125 151.91 -148.125 152.57 -148.125 153.25 C-147.465 153.25 -146.805 153.25 -146.125 153.25 C-146.125 153.91 -146.125 154.57 -146.125 155.25 C-145.465 155.25 -144.805 155.25 -144.125 155.25 C-143.50238281 155.89582031 -143.50238281 155.89582031 -142.8671875 156.5546875 C-140.57360169 158.78656248 -138.11248828 159.95446342 -135.25 161.375 C-134.22132813 161.89320313 -133.19265625 162.41140625 -132.1328125 162.9453125 C-129.22166819 164.335187 -129.22166819 164.335187 -126.3046875 164.8046875 C-125.58539063 164.95164063 -124.86609375 165.09859375 -124.125 165.25 C-123.795 165.91 -123.465 166.57 -123.125 167.25 C-121.4853125 167.2190625 -121.4853125 167.2190625 -119.8125 167.1875 C-116.125 167.25 -116.125 167.25 -113.125 168.25 C-107.08358215 168.54640434 -101.04776174 168.56616928 -95.125 167.25 C-94.46371094 167.10433594 -93.80242187 166.95867187 -93.12109375 166.80859375 C-91.6053511 166.47381233 -90.0910364 166.13250836 -88.578125 165.78515625 C-85.10191966 165.02681209 -81.59947841 164.41842837 -78.09375 163.8125 C-77.4440625 163.626875 -76.794375 163.44125 -76.125 163.25 C-74.79474762 161.16676968 -74.79474762 161.16676968 -76 158.4375 C-76.37125 157.385625 -76.7425 156.33375 -77.125 155.25 C-79.71705724 145.91859394 -78.51274719 135.71504058 -74.125 127.25 C-73.59519531 126.19039063 -73.06539063 125.13078125 -72.51953125 124.0390625 C-71.0546875 121.109375 -69.58984375 118.1796875 -68.125 115.25 C-67.465 115.25 -66.805 115.25 -66.125 115.25 C-65.7228125 114.3528125 -65.7228125 114.3528125 -65.3125 113.4375 C-64.11916367 111.23924887 -62.91498098 109.96838174 -61.125 108.25 C-60.63 107.528125 -60.135 106.80625 -59.625 106.0625 C-59.13 105.464375 -58.635 104.86625 -58.125 104.25 C-57.135 104.25 -56.145 104.25 -55.125 104.25 C-54.856875 103.610625 -54.58875 102.97125 -54.3125 102.3125 C-53.125 100.25 -53.125 100.25 -50.125 99.25 C-50.12669189 98.15328979 -50.12669189 98.15328979 -50.12841797 97.03442383 C-50.11628424 93.70951866 -50.05861196 90.3868972 -50 87.0625 C-50.00257813 85.91201172 -50.00515625 84.76152344 -50.0078125 83.57617188 C-49.81606511 75.30706569 -49.81606511 75.30706569 -47.87207031 72.33349609 C-44.87310959 69.65821175 -43.15775181 69.25 -39.125 69.25 C-36.05215403 71.89642815 -34.40345219 73.58750684 -33.72802734 77.62011719 C-33.63338727 80.30546595 -33.6880659 82.94105209 -33.8125 85.625 C-33.84633789 87.01525391 -33.84633789 87.01525391 -33.88085938 88.43359375 C-33.93946323 90.70742335 -34.0214307 92.97784886 -34.125 95.25 C-33.21210205 95.19352295 -32.2992041 95.1370459 -31.35864258 95.07885742 C-27.95794252 94.88097885 -24.55769995 94.70670278 -21.1550293 94.5480957 C-19.6851308 94.47478688 -18.21566321 94.39220923 -16.74682617 94.30004883 C-14.62985885 94.16885851 -12.51355761 94.07154851 -10.39453125 93.98046875 C-9.12198486 93.91239014 -7.84943848 93.84431152 -6.53833008 93.77416992 C-2.18734068 94.38071297 -0.80925424 95.85789333 1.875 99.25 C2.5625 101.75 2.5625 101.75 1.875 104.25 C-1.34270565 107.64646707 -3.45004657 109.55111565 -8.20263672 109.72583008 C-9.73761161 109.68353584 -11.27200299 109.61341906 -12.8046875 109.51953125 C-13.61745148 109.49026047 -14.43021545 109.46098969 -15.26760864 109.43083191 C-17.84675475 109.33237855 -20.42256227 109.19801526 -23 109.0625 C-24.75511041 108.98915452 -26.510321 108.91816571 -28.265625 108.84960938 C-32.55372337 108.67699864 -36.83919582 108.47218228 -41.125 108.25 C-41.455 109.24 -41.785 110.23 -42.125 111.25 C-42.785 111.25 -43.445 111.25 -44.125 111.25 C-45.115 113.23 -45.115 113.23 -46.125 115.25 C-46.785 115.25 -47.445 115.25 -48.125 115.25 C-48.125 115.91 -48.125 116.57 -48.125 117.25 C-48.785 117.25 -49.445 117.25 -50.125 117.25 C-50.351875 117.78625 -50.57875 118.3225 -50.8125 118.875 C-52.125 121.25 -52.125 121.25 -54.5 123.9375 C-59.57689898 129.90060324 -61.56541204 136.55566561 -62.125 144.25 C-62.785 144.25 -63.445 144.25 -64.125 144.25 C-64.125 145.24 -64.125 146.23 -64.125 147.25 C-63.465 147.25 -62.805 147.25 -62.125 147.25 C-62.0425 148.054375 -61.96 148.85875 -61.875 149.6875 C-61.06774922 153.52194119 -59.72056085 156.66974364 -58.0625 160.19921875 C-57.125 162.25 -57.125 162.25 -56.125 165.25 C-55.465 165.25 -54.805 165.25 -54.125 165.25 C-54.125 165.91 -54.125 166.57 -54.125 167.25 C-53.135 167.9925 -53.135 167.9925 -52.125 168.75 C-51.135 169.4925 -51.135 169.4925 -50.125 170.25 C-50.125 170.91 -50.125 171.57 -50.125 172.25 C-49.465 172.25 -48.805 172.25 -48.125 172.25 C-48.125 172.91 -48.125 173.57 -48.125 174.25 C-47.5475 174.518125 -46.97 174.78625 -46.375 175.0625 C-44.125 176.25 -44.125 176.25 -42.30078125 177.66796875 C-34.50957682 183.33302762 -23.04284492 187.95893044 -13.3125 187.0625 C-2.21932272 185.20057095 10.68934547 179.30099788 17.50390625 170.03515625 C17.95636719 169.44605469 18.40882813 168.85695312 18.875 168.25 C19.535 168.25 20.195 168.25 20.875 168.25 C21.535 166.93 22.195 165.61 22.875 164.25 C23.535 164.25 24.195 164.25 24.875 164.25 C25.0296875 163.3528125 25.0296875 163.3528125 25.1875 162.4375 C25.98003854 159.91578648 26.79091409 158.85314301 28.875 157.25 C29.865 157.25 30.855 157.25 31.875 157.25 C32.535 155.93 33.195 154.61 33.875 153.25 C34.535 153.25 35.195 153.25 35.875 153.25 C35.875 152.59 35.875 151.93 35.875 151.25 C37.28828129 150.43162558 38.70578346 149.62053781 40.125 148.8125 C40.91390625 148.36003906 41.7028125 147.90757812 42.515625 147.44140625 C45.50528878 145.93172504 48.21704523 145.35965913 51.5 144.8125 C54.04607484 144.42899671 54.04607484 144.42899671 55.875 142.25 C64.79069862 140.2892862 75.70935365 140.06171645 83.875 144.25 C86.45113721 145.27724474 89.04016399 146.26525517 91.6328125 147.25 C93.875 148.25 93.875 148.25 95.875 150.25 C96.9475 150.806875 98.02 151.36375 99.125 151.9375 C103.22631643 154.26014025 106.59255143 157.06551095 108.875 161.25 C108.6875 164.5 108.6875 164.5 106.875 167.25 C102.79394076 169.79744556 102.79394076 169.79744556 99.875 170.25 C96.7959687 169.37494993 94.3018172 167.7879484 91.625 166.0625 C90.91859375 165.63646484 90.2121875 165.21042969 89.484375 164.77148438 C86.5652083 162.99952807 83.71650582 161.14433721 80.875 159.25 C72.29919424 156.39139808 62.12390621 155.4876241 53.703125 159.2734375 C46.1983723 163.28238659 39.43348752 167.9505272 34.0625 174.625 C33.340625 175.49125 32.61875 176.3575 31.875 177.25 C31.215 177.25 30.555 177.25 29.875 177.25 C29.689375 177.95125 29.50375 178.6525 29.3125 179.375 C27.35432486 183.29135028 24.46823769 185.7838864 20.875 188.25 C20.215 188.25 19.555 188.25 18.875 188.25 C18.875 188.91 18.875 189.57 18.875 190.25 C16.79296875 191.7578125 16.79296875 191.7578125 14.0625 193.375 C13.16917969 193.91382813 12.27585938 194.45265625 11.35546875 195.0078125 C8.875 196.25 8.875 196.25 5.875 196.25 C8.01730559 198.55099489 9.90448149 200.26742088 12.625 201.875 C13.3675 202.32875 14.11 202.7825 14.875 203.25 C14.875 203.91 14.875 204.57 14.875 205.25 C15.535 205.435625 16.195 205.62125 16.875 205.8125 C20.4786794 207.53926305 22.9516454 209.84181649 25.890625 212.515625 C27.99026534 214.42652495 27.99026534 214.42652495 31.0625 216.375 C34.07713648 218.38475765 36.35056483 220.66083572 38.875 223.25 C39.7 223.889375 40.525 224.52875 41.375 225.1875 C44.29820625 227.59914516 46.48095036 230.3172892 48.875 233.25 C49.7825 234.11625 50.69 234.9825 51.625 235.875 C53.875 238.25 53.875 238.25 55 240.1875 C54.8221521 243.12199036 53.49022021 244.97181823 51.515625 247.08203125 C49.875 248.25 49.875 248.25 46.1875 248.75 C40.02952586 247.51369544 35.66709103 241.92017768 31.875 237.25 C31.875 236.59 31.875 235.93 31.875 235.25 C30.555 234.92 29.235 234.59 27.875 234.25 C27.875 233.59 27.875 232.93 27.875 232.25 C26.555 231.59 25.235 230.93 23.875 230.25 C23.875 229.59 23.875 228.93 23.875 228.25 C23.276875 228.12625 22.67875 228.0025 22.0625 227.875 C19.875 227.25 19.875 227.25 16.875 225.25 C16.875 224.59 16.875 223.93 16.875 223.25 C16.111875 222.96125 15.34875 222.6725 14.5625 222.375 C11.875 221.25 11.875 221.25 8.875 219.25 C8.875 218.59 8.875 217.93 8.875 217.25 C8.111875 216.96125 7.34875 216.6725 6.5625 216.375 C3.875 215.25 3.875 215.25 0.875 213.25 C0.875 212.59 0.875 211.93 0.875 211.25 C0.153125 210.99347656 -0.56875 210.73695313 -1.3125 210.47265625 C-5.18135659 208.79077831 -8.26652614 206.33269676 -11.625 203.80859375 C-15.52243212 201.37878841 -18.57321415 201.25 -23.125 201.25 C-29.18612582 200.38702564 -34.58736888 198.91626684 -40.125 196.25 C-40.74890625 195.97414062 -41.3728125 195.69828125 -42.015625 195.4140625 C-49.65451568 191.89536089 -56.07087822 186.98882903 -61.125 180.25 C-63.58434709 177.87263114 -64.68464428 177.29587039 -68.125 176.9375 C-71.01772143 177.04909842 -71.01772143 177.04909842 -72.91796875 178.203125 C-75.73744026 179.54050264 -78.35052546 179.88083141 -81.4375 180.3125 C-82.58734375 180.47621094 -83.7371875 180.63992187 -84.921875 180.80859375 C-85.97890625 180.95425781 -87.0359375 181.09992188 -88.125 181.25 C-89.47924754 181.45780695 -90.83343559 181.6660031 -92.1875 181.875 C-95.125 182.25 -95.125 182.25 -99.125 182.25 C-99.888125 182.415 -100.65125 182.58 -101.4375 182.75 C-106.52865597 183.69719181 -111.10091802 183.2548164 -116.125 182.25 C-116.785 182.58 -117.445 182.91 -118.125 183.25 C-127.41077278 182.33927998 -135.9432686 178.52681414 -144.125 174.25 C-145.23875 173.693125 -146.3525 173.13625 -147.5 172.5625 C-148.36625 172.129375 -149.2325 171.69625 -150.125 171.25 C-150.125 170.59 -150.125 169.93 -150.125 169.25 C-150.764375 168.981875 -151.40375 168.71375 -152.0625 168.4375 C-154.125 167.25 -154.125 167.25 -155.125 164.25 C-155.785 164.25 -156.445 164.25 -157.125 164.25 C-159.75 161.875 -159.75 161.875 -162.125 159.25 C-162.125 158.59 -162.125 157.93 -162.125 157.25 C-162.785 157.25 -163.445 157.25 -164.125 157.25 C-170.99257175 143.76012692 -175.68510235 132.15089702 -175.3125 116.75 C-175.29896484 115.68007812 -175.28542969 114.61015625 -175.27148438 113.5078125 C-175.24552536 111.54481682 -175.21335466 109.58188502 -175.17260742 107.61914062 C-175.13664932 105.82971798 -175.125 104.0397839 -175.125 102.25 C-174.51422686 97.77099694 -173.44338919 93.57138679 -172.125 89.25 C-171.9084375 88.53585938 -171.691875 87.82171875 -171.46875 87.0859375 C-168.65143977 78.17466276 -164.34950311 68.32329899 -158.125 61.25 C-157.465 61.25 -156.805 61.25 -156.125 61.25 C-155.795 60.59 -155.465 59.93 -155.125 59.25 C-151.98003397 55.7555933 -149.52380438 53.83845714 -145.125 52.25 C-144.795 51.59 -144.465 50.93 -144.125 50.25 C-136.57231946 44.5854896 -127.43611718 40.8189599 -118.125 39.25 C-115.80078125 39.67578125 -115.80078125 39.67578125 -114.125 40.25 C-114.125 39.59 -114.125 38.93 -114.125 38.25 C-113.25875 38.5284375 -113.25875 38.5284375 -112.375 38.8125 C-109.82389332 39.30854852 -108.50850007 39.28285003 -106.125 38.25 C-105.41774562 36.93774489 -104.75684681 35.60018215 -104.125 34.25 C-97.37254902 22.33251634 -97.37254902 22.33251634 -91.125 20.25 C-90.63 18.765 -90.63 18.765 -90.125 17.25 C-88.015625 15.71484375 -88.015625 15.71484375 -85.375 14.1875 C-84.51390625 13.68089844 -83.6528125 13.17429687 -82.765625 12.65234375 C-72.12985864 7.00405954 -59.54891654 6.86589546 -48.125 10.25 C-45.43623801 11.1987026 -42.78547195 12.22315118 -40.125 13.25 C-37.19517847 13.25 -35.60733987 11.79456703 -33.125 10.25 C-27.30553012 6.77429831 -21.57949265 4.35758944 -15.125 2.25 C-14.26003906 1.90453125 -13.39507812 1.5590625 -12.50390625 1.203125 C-8.25093365 0.00344255 -4.39340407 -0.04300232 0 0 Z M-113.125 54.25 C-112.125 56.25 -112.125 56.25 -112.125 56.25 Z M95.875 87.25 C95.875 87.58 95.875 87.91 95.875 88.25 C98.185 88.25 100.495 88.25 102.875 88.25 C102.875 87.92 102.875 87.59 102.875 87.25 C100.565 87.25 98.255 87.25 95.875 87.25 Z " fill="#33B6FE" transform="translate(182.125,44.75)"/>
<path d="M0 0 C2.3125 1.625 2.3125 1.625 4 4 C4.61099356 7.84053096 3.88300382 10.49331481 2.4375 14 C0.95894388 17.72482407 0.50347895 20.12665139 2 24 C5.00140188 26.51280157 7.51160433 27.84972441 11.25 29 C14 30 14 30 15.375 31.8125 C16.0858831 34.30059084 16.14307397 36.42466848 16 39 C15.34 39 14.68 39 14 39 C13.34 40.32 12.68 41.64 12 43 C5.27163794 43.57262656 -0.4331187 41.85666158 -5.765625 37.5859375 C-6.27609375 37.12445313 -6.7865625 36.66296875 -7.3125 36.1875 C-9.69861146 33.74212403 -9.69861146 33.74212403 -12.125 34.125 C-12.74375 34.41375 -13.3625 34.7025 -14 35 C-15.051875 35.1546875 -15.051875 35.1546875 -16.125 35.3125 C-18.70404816 36.25815099 -18.80721999 37.57526107 -20 40 C-21.457297 41.80578107 -23.00191222 43.50210344 -24.5625 45.21875 C-29.24972179 51.02682917 -31.58091251 59.64177482 -31 67 C-31.66 67 -32.32 67 -33 67 C-33 68.98 -33 70.96 -33 73 C-32.34 73 -31.68 73 -31 73 C-31.20625 73.680625 -31.4125 74.36125 -31.625 75.0625 C-32.099115 78.77640085 -31.07225805 81.44814521 -30 85 C-30.33 85.66 -30.66 86.32 -31 87 C-30.34 87 -29.68 87 -29 87 C-29.26064428 90.82278276 -29.61171322 92.57935599 -32.25 95.4375 C-35 97 -35 97 -37.5625 97 C-40.68185852 95.72026317 -42.00342304 94.75389926 -44 92 C-44.94503982 89.04112531 -45.49773822 86.06165955 -46 83 C-46.185625 81.948125 -46.37125 80.89625 -46.5625 79.8125 C-46.706875 78.884375 -46.85125 77.95625 -47 77 C-47.185625 75.88625 -47.37125 74.7725 -47.5625 73.625 C-47.706875 72.75875 -47.85125 71.8925 -48 71 C-49.299375 71.103125 -50.59875 71.20625 -51.9375 71.3125 C-57.57684547 71.35725671 -61.39671087 69.04709446 -66 66 C-66 65.34 -66 64.68 -66 64 C-66.99 63.67 -67.98 63.34 -69 63 C-69 62.01 -69 61.02 -69 60 C-69.66 60 -70.32 60 -71 60 C-74.87602315 52.33447207 -75.75792392 45.5483878 -75 37 C-74.67 36.34 -74.34 35.68 -74 35 C-73.01 35 -72.02 35 -71 35 C-70.67 34.01 -70.34 33.02 -70 32 C-63.67508711 32.47735192 -63.67508711 32.47735192 -61.0625 34.5 C-59.70436837 37.69560384 -59.96860758 40.25387791 -60.0703125 43.68359375 C-59.95412314 47.51138762 -58.98032583 49.69945694 -57 53 C-53.29071438 55.44655009 -51.47919547 56 -47 56 C-46.78085937 55.48953125 -46.56171875 54.9790625 -46.3359375 54.453125 C-44.31543219 49.82074697 -42.19966859 45.23757588 -40 40.6875 C-39.525625 39.70136719 -39.05125 38.71523437 -38.5625 37.69921875 C-36.97614559 34.9587915 -35.40932829 33.04501454 -33 31 C-32.34 31 -31.68 31 -31 31 C-30.773125 30.401875 -30.54625 29.80375 -30.3125 29.1875 C-28.64880506 26.41467511 -26.79334541 25.56699864 -24 24 C-23.505 23.484375 -23.01 22.96875 -22.5 22.4375 C-21 21 -21 21 -18.4375 20.125 C-15.8587319 19.22871149 -15.8587319 19.22871149 -14.875 16.9375 C-14.35585869 15.19466844 -13.83830555 13.45136043 -13.32421875 11.70703125 C-12.94716797 10.49080078 -12.94716797 10.49080078 -12.5625 9.25 C-12.33691406 8.47140625 -12.11132812 7.6928125 -11.87890625 6.890625 C-11.58886719 6.26671875 -11.29882812 5.6428125 -11 5 C-10.01 4.67 -9.02 4.34 -8 4 C-7.67 3.01 -7.34 2.02 -7 1 C-4.4086487 -0.29567565 -2.87704151 -0.34250494 0 0 Z M-11 6 C-10 8 -10 8 -10 8 Z " fill="#32B5FE" transform="translate(103,100)"/>
<path d="M0 0 C2.42624357 2.16394697 3.84840673 3.74394146 4.24609375 7.0390625 C4.24970951 9.02773096 4.13012524 11.01559007 4 13 C3.81509993 15.32357511 3.81509993 15.32357511 6 18 C8.05925139 18.72382467 8.05925139 18.72382467 10 19 C10 18.34 10 17.68 10 17 C10.99 17.33 11.98 17.66 13 18 C13.66 17.67 14.32 17.34 15 17 C17.67578752 16.95752718 20.32680213 16.95235885 23 17 C23.99 17 24.98 17 26 17 C32.95112719 18.29906311 38.36899339 20.44361746 44.02734375 24.6953125 C46.06435068 26.04256065 47.583861 26.68440154 50 27 C50.4125 26.566875 50.825 26.13375 51.25 25.6875 C54.52755345 22.52700203 59.46323244 22.30735351 63.8125 21.4375 C66.16408762 21.01421231 66.16408762 21.01421231 69 20 C69.33 20.33 69.66 20.66 70 21 C73.12726106 20.95850438 76.24271285 20.87255465 79.36523438 20.69726562 C82.84400031 20.60545069 84.6389929 20.72694526 87.453125 22.85546875 C89 25 89 25 89.4375 27.5 C88.90218604 30.55893694 88.27605184 31.87568495 86 34 C81.73062773 35.21982065 77.49724123 35.01719317 73.09765625 34.98046875 C67.83652633 35.02945506 63.71998625 36.87137875 59 39 C59.20496094 39.64066406 59.40992188 40.28132813 59.62109375 40.94140625 C63.0776699 52.03883495 63.0776699 52.03883495 63 56 C60.375 59 60.375 59 57 61 C53.68220376 61.07899515 52.42261557 60.32601772 49.8125 58.3125 C47.7005204 55.61790534 47.06244878 53.24984332 46 50 C44.74049846 47.89283393 43.40711057 45.8595522 42.0234375 43.83203125 C41 42 41 42 41 39 C40.46375 38.9175 39.9275 38.835 39.375 38.75 C37 38 37 38 34.5625 36 C28.35527767 31.66754787 18.11093598 32.43230904 10.8671875 33.4140625 C7.75712634 34.39002312 6.05979096 36.57671651 4 39 C2.515 39.495 2.515 39.495 1 40 C-0.20882096 42.00016466 -0.20882096 42.00016466 -1 44 C-1.66 44 -2.32 44 -3 44 C-3 44.66 -3 45.32 -3 46 C-6.25 46.3125 -6.25 46.3125 -10 46 C-12.62540632 43.64386612 -13.84721662 42.14681848 -14.31640625 38.625 C-13.90964001 35.25034671 -12.66408343 33.77667124 -10.5 31.1875 C-9.8503125 30.39730469 -9.200625 29.60710937 -8.53125 28.79296875 C-8.0259375 28.20128906 -7.520625 27.60960938 -7 27 C-7.45375 26.360625 -7.9075 25.72125 -8.375 25.0625 C-11.91388679 18.3930595 -13.11547443 10.5633045 -11.3125 3.1875 C-10 1 -10 1 -7.6875 -0.375 C-4.56621238 -1.10088084 -2.99597949 -1.1522998 0 0 Z " fill="#32B4FF" transform="translate(127,72)"/>
<path d="M0 0 C0 0.66 0 1.32 0 2 C0.66 2 1.32 2 2 2 C2.77093022 4.64318934 3.21342079 6.30175142 3 9 C1.35200611 11.98076748 -0.77733694 14.43335337 -3 17 C-5.17946927 19.64130919 -6.3948963 21.61141927 -7 25 C-6.45472656 25.17015625 -5.90945312 25.3403125 -5.34765625 25.515625 C-0.34737809 27.122552 4.4002224 28.99269732 9.15234375 31.23046875 C10.97412781 32.12815893 10.97412781 32.12815893 13 32 C13 32.66 13 33.32 13 34 C14.32 34 15.64 34 17 34 C17 33.34 17 32.68 17 32 C19.64 30.68 22.28 29.36 25 28 C25 28.66 25 29.32 25 30 C26.1446875 29.6596875 26.1446875 29.6596875 27.3125 29.3125 C30 29 30 29 31.75 30.1875 C33.21182191 32.30714178 33.85213306 33.41232855 34 36 C32.5625 39.25 32.5625 39.25 31 42 C30.34 42 29.68 42 29 42 C29 42.66 29 43.32 29 44 C20.78284632 48.44599619 13.97573306 49.24694668 4.9375 46.8125 C0.6920251 45.41945355 -2.92474398 43.40037255 -6.76171875 41.14453125 C-10.3024246 39.33401325 -14.03703298 38.33422613 -18 38 C-18.99 38.33 -19.98 38.66 -21 39 C-21.66 39 -22.32 39 -23 39 C-24.35814564 39.79225162 -25.68878322 40.63228301 -27 41.5 C-30.77777778 44 -30.77777778 44 -33 44 C-33.0825 44.515625 -33.165 45.03125 -33.25 45.5625 C-34.09582802 48.31144107 -35.42298672 50.59420127 -36.88671875 53.05859375 C-38.42362287 55.73873882 -39.74421277 58.51158802 -41.0703125 61.30078125 C-42 63 -42 63 -44 65 C-47.64903207 65.48653761 -49.61695124 65.18744939 -52.9375 63.5625 C-55.29302329 60.63594076 -55.26752442 60.07722902 -54.9375 56.5 C-54.23281684 51.87601159 -52.4927841 48.7246825 -49.875 44.875 C-47.81791074 42.29286023 -47.81791074 42.29286023 -48 40 C-47.34 40 -46.68 40 -46 40 C-46 39.34 -46 38.68 -46 38 C-45.34 38 -44.68 38 -44 38 C-43.91492188 37.4121875 -43.82984375 36.824375 -43.7421875 36.21875 C-42.25705377 31.77898178 -37.84784884 29.36232229 -34 27 C-32.03877098 26.30158599 -30.05851772 25.65420486 -28.0625 25.0625 C-24.23285594 23.94768478 -24.23285594 23.94768478 -21.859375 20.98046875 C-21.19493853 18.52230858 -21.19493853 18.52230858 -21 15 C-20.34 15 -19.68 15 -19 15 C-19 14.01 -19 13.02 -19 12 C-18.34 12 -17.68 12 -17 12 C-16.731875 11.2575 -16.46375 10.515 -16.1875 9.75 C-15.04723249 7.10938051 -13.90619694 5.14447156 -12 3 C-11.34 3 -10.68 3 -10 3 C-10 2.34 -10 1.68 -10 1 C-6.78548731 -0.60725635 -3.56387464 -0.05748185 0 0 Z " fill="#31B4FF" transform="translate(195,147)"/>
<path d="M0 0 C3.45546939 2.27746846 5.46741453 4.17197261 7 8 C7.11766176 9.66368258 7.17509083 11.33220803 7.1875 13 C7.60595938 19.21830643 10.1688447 23.40611987 13.50390625 28.56640625 C15 31 15 31 15 33 C15.66 33 16.32 33 17 33 C17 33.66 17 34.32 17 35 C18.30973998 36.3565164 19.64802142 37.68557638 21 39 C25 43.66666667 25 43.66666667 25 46 C25.66 46 26.32 46 27 46 C30.02013423 51.31543624 30.02013423 51.31543624 29.9375 54.125 C28.6271773 56.74564539 27.34597719 58.22466591 25 60 C22.0625 60.5625 22.0625 60.5625 19 60 C16.5625 58 16.5625 58 14 55 C13.48824219 54.46503906 12.97648437 53.93007813 12.44921875 53.37890625 C3.05265109 43.33429945 -5.12446702 30.49288551 -8 17 C-8.20625 16.154375 -8.4125 15.30875 -8.625 14.4375 C-9.36899783 9.6015141 -9.38702881 4.71589796 -8 0 C-5.0233079 -1.48834605 -3.18307201 -0.8113713 0 0 Z " fill="#31B4FF" transform="translate(224,227)"/>
<path d="M0 0 C0 0.99 0 1.98 0 3 C-0.66 2.34 -1.32 1.68 -2 1 C-1.34 0.67 -0.68 0.34 0 0 Z M-3 2 C-2.34 2.66 -1.68 3.32 -1 4 C-3.64 6.64 -6.28 9.28 -9 12 C-9.33 11.01 -9.66 10.02 -10 9 C-9.38125 8.7525 -8.7625 8.505 -8.125 8.25 C-5.62985717 6.78226892 -5.09872287 5.62003145 -4 3 C-3.67 2.67 -3.34 2.34 -3 2 Z M-12 11 C-11.34 11.66 -10.68 12.32 -10 13 C-10.66 13 -11.32 13 -12 13 C-12 12.34 -12 11.68 -12 11 Z " fill="#23BBFF" transform="translate(78,124)"/>
<path d="M0 0 C2.31 0 4.62 0 7 0 C7 0.33 7 0.66 7 1 C4.69 1 2.38 1 0 1 C0 0.67 0 0.34 0 0 Z " fill="#00DAFF" transform="translate(179,44)"/>
<path d="M0 0 C2 1 2 1 2 1 Z " fill="#00FFFF" transform="translate(59,211)"/>
<path d="M0 0 C2 1 2 1 2 1 Z " fill="#007FFF" transform="translate(234,188)"/>
<path d="M0 0 C2 1 2 1 2 1 Z " fill="#007FFF" transform="translate(222,175)"/>
<path d="M0 0 C2 1 2 1 2 1 Z " fill="#007FFF" transform="translate(209,92)"/>
<path d="" fill="#0000FF" transform="translate(0,0)"/>
<path d="" fill="#00FFFF" transform="translate(0,0)"/>
<path d="" fill="#0000FF" transform="translate(0,0)"/>
<path d="" fill="#0000FF" transform="translate(0,0)"/>
<path d="" fill="#00FFFF" transform="translate(0,0)"/>
<path d="" fill="#0000FF" transform="translate(0,0)"/>
<path d="" fill="#00FFFF" transform="translate(0,0)"/>
<path d="" fill="#0000FF" transform="translate(0,0)"/>
<path d="" fill="#00FFFF" transform="translate(0,0)"/>
<path d="" fill="#0000FF" transform="translate(0,0)"/>
<path d="" fill="#00FFFF" transform="translate(0,0)"/>
<path d="" fill="#00FFFF" transform="translate(0,0)"/>
<path d="" fill="#00FFFF" transform="translate(0,0)"/>
<path d="" fill="#00FFFF" transform="translate(0,0)"/>
<path d="" fill="#00FFFF" transform="translate(0,0)"/>
<path d="" fill="#00FFFF" transform="translate(0,0)"/>
</svg>
